HIERARCHY
ROOT Hips
{
	OFFSET 0.000000 0.000000 0.000000 
	CHANNELS 6 Xposition Yposition Zposition Zrotation Yrotation Xrotation
	JOINT LeftUpLeg
	{
		OFFSET 1.363060 -1.794630 0.839290 
		CHANNELS 3 Zrotation Yrotation Xrotation
		JOINT LeftLeg
		{
			OFFSET 2.448110 -6.726130 0.000000 
			CHANNELS 3 Zrotation Yrotation Xrotation
			JOINT LeftFoot
			{
				OFFSET 2.562200 -7.039590 0.000000 
				CHANNELS 3 Zrotation Yrotation Xrotation
				JOINT LeftToeBase
				{
					OFFSET 0.157640 -0.433110 2.322550 
					CHANNELS 3 Zrotation Yrotation Xrotation
					End Site
					{
						OFFSET 0.000000 0.000000 0.000000 
					}
				}
			}
		}
	}
	JOINT RightUpLeg
	{
		OFFSET -1.305520 -1.794630 0.839290 
		CHANNELS 3 Zrotation Yrotation Xrotation
		JOINT RightLeg
		{
			OFFSET -2.542530 -6.985550 0.000000 
			CHANNELS 3 Zrotation Yrotation Xrotation
			JOINT RightFoot
			{
				OFFSET -2.568260 -7.056230 0.000000 
				CHANNELS 3 Zrotation Yrotation Xrotation
				JOINT RightToeBase
				{
					OFFSET -0.164730 -0.452590 2.363150 
					CHANNELS 3 Zrotation Yrotation Xrotation
					End Site
					{
						OFFSET 0.000000 0.000000 0.000000 
					}
				}
			}
		}
	}
	JOINT Spine
	{
		OFFSET 0.028270 2.035590 -0.193380 
		CHANNELS 3 Zrotation Yrotation Xrotation
		JOINT Spine1
		{
			OFFSET 0.056720 2.048850 -0.042750 
			CHANNELS 3 Zrotation Yrotation Xrotation
			JOINT Neck1
			{
				OFFSET -0.054170 1.746240 0.172020 
				CHANNELS 3 Zrotation Yrotation Xrotation
				JOINT Head
				{
					OFFSET 0.104070 1.761360 -0.123970 
					CHANNELS 3 Zrotation Yrotation Xrotation
					End Site
					{
						OFFSET 0.000000 0.000000 0.000000 
					}
				}
			}
			JOINT LeftArm
			{
				OFFSET 3.362410 1.200890 -0.311210 
				CHANNELS 3 Zrotation Yrotation Xrotation
				JOINT LeftForeArm
				{
					OFFSET 4.983000 -0.000000 -0.000000 
					CHANNELS 3 Zrotation Yrotation Xrotation
					JOINT LeftHand
					{
						OFFSET 3.483560 -0.000000 -0.000000 
						CHANNELS 3 Zrotation Yrotation Xrotation
						JOINT LeftHandIndex1
						{
							OFFSET 0.715260 -0.000000 -0.000000 
							CHANNELS 3 Zrotation Yrotation Xrotation
							End Site
							{
								OFFSET 0.000000 0.000000 0.000000 
							}
						}
					}
				}
			}
			JOINT RightArm
			{
				OFFSET -3.136600 1.374050 -0.404650 
				CHANNELS 3 Zrotation Yrotation Xrotation
				JOINT RightForeArm
				{
					OFFSET -5.241900 -0.000000 -0.000000 
					CHANNELS 3 Zrotation Yrotation Xrotation
					JOINT RightHand
					{
						OFFSET -3.444170 -0.000000 -0.000000 
						CHANNELS 3 Zrotation Yrotation Xrotation
						JOINT RightHandIndex1
						{
							OFFSET -0.622530 -0.000000 -0.000000 
							CHANNELS 3 Zrotation Yrotation Xrotation
							End Site
							{
								OFFSET 0.000000 0.000000 0.000000 
							}
						}
					}
				}
			}
		}
	}
}
MOTION
Frames: 17
Frame Time: 0.041667
-0.753145 18.175584 4.769350 -1.612841 -0.413712 5.184136 -9.954879 -5.711335 5.985249 -1.854697 -3.441282 -6.955452 -4.019278 16.319268 2.800227 0.352900 -3.816700 -10.561700 16.207952 1.918828 5.933883 1.302132 3.602077 -6.724591 2.517570 -12.259758 -7.429259 -0.055000 -1.513700 4.163600 -1.439766 1.741484 6.599578 -1.648076 1.383069 -7.765698 4.479466 -4.791630 28.575315 0.599700 -1.654800 9.825000 -90.895205 8.261264 27.999320 22.003778 -30.735626 -5.739151 0.656312 0.390969 6.653255 -7.125000 0.000000 0.000000 97.193955 -15.900249 13.131527 -34.053084 41.544556 -11.568362 1.388207 -2.467196 7.671376 7.125000 0.000000 0.000000 
-0.724570 18.156101 4.800423 -1.583139 -0.760394 4.266768 -10.253832 -7.268069 7.881837 -1.914004 -3.628793 -7.454343 -4.547269 17.930787 1.101374 0.285700 -3.437800 -9.500000 16.057153 2.075856 6.838999 1.301683 3.629397 -6.720228 2.507369 -12.198823 -7.475121 -0.052600 -1.480100 4.070900 -1.962938 1.918556 8.427920 -1.851711 1.446617 -8.060064 4.477438 -4.794983 28.399986 0.577100 -1.652900 9.821000 -90.951420 8.168754 27.980557 22.004678 -30.805425 -5.745517 0.655934 0.390127 6.743306 -7.125000 0.000000 0.000000 97.259420 -15.814460 13.171004 -34.062752 41.602011 -11.580724 1.388297 -2.466323 7.689089 7.125000 0.000000 0.000000 
-0.724570 18.154403 4.801622 -1.582555 -0.771691 4.247524 -10.260608 -7.225073 7.954738 -1.910014 -3.669267 -7.559314 -4.554376 17.977527 1.168904 0.292700 -3.478900 -9.615100 16.055671 2.083033 6.862422 1.301378 3.628312 -6.716403 2.499953 -12.170878 -7.487913 -0.057000 -1.539900 4.235800 -1.934149 1.917545 8.431109 -1.845699 1.446925 -8.065562 4.414574 -4.773057 28.404170 0.560600 -1.648800 9.816000 -90.980750 8.194916 27.930257 22.017597 -30.818083 -5.749964 0.654236 0.391118 6.795462 -7.125000 0.000000 0.000000 97.240885 -15.836560 13.211004 -34.059333 41.598524 -11.579735 1.390873 -2.466057 7.737468 7.125000 0.000000 0.000000 
-0.724669 18.153604 4.802621 -1.553752 -0.772162 4.246672 -10.284371 -7.226234 8.042516 -1.905266 -3.724286 -7.704206 -4.558743 18.016174 1.212414 0.286700 -3.443600 -9.516300 16.032820 2.083694 6.865672 1.301025 3.629437 -6.718604 2.494623 -12.150046 -7.495508 -0.058900 -1.566000 4.307600 -2.031234 1.924603 8.444633 -1.822012 1.450960 -8.072663 4.412696 -4.781886 28.447256 0.553300 -1.648400 9.829500 -90.950754 8.199579 27.977654 22.032483 -30.833327 -5.756382 0.653713 0.393008 6.760949 -7.125000 0.000000 0.000000 97.266858 -15.836923 13.197347 -34.060183 41.604796 -11.582451 1.390886 -2.466925 7.758748 7.125000 0.000000 0.000000 
-0.724170 18.152904 4.803720 -1.505072 -0.774511 4.239344 -10.323052 -7.231130 8.064690 -1.904486 -3.731738 -7.721225 -4.551603 17.994509 1.212523 0.281500 -3.412300 -9.428800 15.997725 2.085357 6.861906 1.301210 3.628128 -6.714128 2.495566 -12.151625 -7.493161 -0.057900 -1.552200 4.269600 -2.193861 1.940850 8.501089 -1.791402 1.459810 -8.079772 4.441871 -4.798027 28.499842 0.554900 -1.648600 9.852300 -90.920961 8.193911 28.000519 22.054297 -30.858572 -5.766956 0.654390 0.392872 6.760876 -7.125000 0.000000 0.000000 97.304550 -15.816129 13.164713 -34.061293 41.612957 -11.584571 1.386788 -2.468631 7.790845 7.125000 0.000000 0.000000 
-0.723271 18.153004 4.804519 -1.491230 -0.762953 4.259304 -10.335835 -7.220170 8.040239 -1.904812 -3.729612 -7.716431 -4.551578 17.997490 1.229164 0.293500 -3.483900 -9.629100 15.988211 2.075588 6.845761 1.300801 3.632412 -6.727958 2.502550 -12.176818 -7.463932 -0.056600 -1.535700 4.224200 -2.219483 1.941136 8.468222 -1.785286 1.460082 -8.060081 4.438103 -4.783920 28.511297 0.555900 -1.642300 9.852500 -90.935267 8.205869 27.965018 22.067315 -30.871739 -5.773813 0.655186 0.392631 6.797118 -7.125000 0.000000 0.000000 97.304093 -15.824131 13.149402 -34.075202 41.619910 -11.590584 1.382852 -2.468586 7.804969 7.125000 0.000000 0.000000 
-0.722571 18.153803 4.806018 -1.510728 -0.750624 4.273458 -10.319914 -7.190724 8.013718 -1.904214 -3.725096 -7.707121 -4.551212 17.999698 1.254501 0.312800 -3.595200 -9.940600 16.009377 2.059733 6.851748 1.300465 3.637664 -6.743491 2.512030 -12.211410 -7.421316 -0.052800 -1.482600 4.077700 -2.215208 1.940796 8.398599 -1.796863 1.457645 -8.034369 4.327994 -4.757971 28.487017 0.522500 -1.640700 9.830300 -90.929561 8.245342 27.969416 22.087174 -30.889888 -5.783391 0.656062 0.393428 6.793940 -7.125000 0.000000 0.000000 97.318765 -15.839274 13.115235 -34.076378 41.619635 -11.593675 1.378646 -2.469453 7.786297 7.125000 0.000000 0.000000 
-0.722172 18.154203 4.807617 -1.500258 -0.745659 4.273980 -10.330551 -7.176817 8.015680 -1.903353 -3.726888 -7.708997 -4.542806 17.969147 1.241992 0.305800 -3.555300 -9.828700 15.999893 2.053281 6.853642 1.300708 3.635078 -6.736548 2.513754 -12.219640 -7.434253 -0.050300 -1.447600 3.981400 -2.248337 1.944286 8.386464 -1.796986 1.458604 -8.027404 4.249482 -4.760094 28.503032 0.498200 -1.649700 9.831000 -90.921869 8.262583 28.000700 22.112011 -30.916410 -5.795530 0.656645 0.394454 6.768105 -7.125000 0.000000 0.000000 97.324490 -15.825979 13.082062 -34.047304 41.593630 -11.574003 1.378268 -2.470991 7.784983 7.125000 0.000000 0.000000 
-0.722371 18.154103 4.808316 -1.496476 -0.736499 4.299499 -10.333312 -7.213002 8.010327 -1.904125 -3.730982 -7.721429 -4.545943 17.975582 1.208843 0.287900 -3.450400 -9.535400 15.986904 2.054939 6.818666 1.300944 3.627031 -6.716270 2.502196 -12.178800 -7.486616 -0.054900 -1.511500 4.157400 -2.205253 1.950219 8.352141 -1.808032 1.461721 -8.026180 4.270390 -4.775150 28.536468 0.509400 -1.657800 9.847000 -90.943454 8.232190 28.011434 22.097411 -30.902652 -5.789745 0.657110 0.394113 6.777189 -7.125000 0.000000 0.000000 97.298927 -15.825966 13.064615 -34.042239 41.579100 -11.563536 1.382148 -2.469609 7.753460 7.125000 0.000000 0.000000 
-0.722471 18.154403 4.809015 -1.543165 -0.731217 4.322766 -10.290089 -7.219508 7.995352 -1.903462 -3.735326 -7.738988 -4.553922 18.006443 1.220385 0.295900 -3.498000 -9.668500 16.027177 2.057994 6.796572 1.301697 3.617890 -6.692712 2.495069 -12.152273 -7.498482 -0.055500 -1.520600 4.182400 -2.134207 1.964293 8.283401 -1.846717 1.464951 -8.025067 4.229802 -4.769972 28.522948 0.498600 -1.660600 9.840800 -90.942592 8.217127 28.044503 22.077199 -30.881118 -5.780501 0.657280 0.393563 6.775832 -7.125000 0.000000 0.000000 97.294186 -15.838750 13.067809 -34.048629 41.581882 -11.569059 1.380057 -2.468755 7.681331 7.125000 0.000000 0.000000 
-0.722172 18.154503 4.809715 -1.590677 -0.729628 4.317684 -10.250355 -7.196749 8.013126 -1.901299 -3.742679 -7.761097 -4.553943 18.011909 1.236921 0.307600 -3.565900 -9.858400 16.075459 2.056283 6.800250 1.302710 3.605995 -6.661555 2.497790 -12.161977 -7.481889 -0.049900 -1.441900 3.965700 -2.078112 1.971264 8.205189 -1.884679 1.463887 -8.037989 4.140910 -4.755419 28.530725 0.472700 -1.662600 9.834600 -90.931647 8.258399 28.080379 22.098109 -30.908729 -5.800529 0.663451 0.396859 6.740407 -7.125000 0.000000 0.000000 97.299919 -15.855060 13.083311 -34.048251 41.581378 -11.571164 1.376116 -2.468965 7.659329 7.125000 0.000000 0.000000 
-0.722272 18.154203 4.809915 -1.595277 -0.723493 4.311674 -10.248401 -7.186885 8.033636 -1.899925 -3.750789 -7.782212 -4.551207 18.010121 1.267886 0.305300 -3.552300 -9.820500 16.080394 2.052900 6.791136 1.303221 3.595988 -6.634989 2.494207 -12.147535 -7.487305 -0.052300 -1.475500 4.058300 -2.038788 1.964558 8.194836 -1.892465 1.460483 -8.049791 4.221294 -4.788450 28.591635 0.496100 -1.669700 9.855100 -90.945038 8.259665 28.039837 22.091184 -30.914525 -5.820590 0.676980 0.400869 6.743042 -7.125000 0.000000 0.000000 97.288366 -15.874118 13.109688 -34.079656 41.604239 -11.588011 1.376704 -2.466767 7.630883 7.125000 0.000000 0.000000 
-0.722371 18.154303 4.810214 -1.575786 -0.717642 4.320351 -10.266245 -7.180440 8.025262 -1.899817 -3.751810 -7.784876 -4.549127 18.007181 1.288142 0.296200 -3.499400 -9.672500 16.060140 2.047866 6.784543 1.302798 3.595600 -6.634765 2.488304 -12.125770 -7.504383 -0.057600 -1.548300 4.258800 -2.037879 1.964737 8.174890 -1.873783 1.463059 -8.053673 4.289388 -4.819068 28.631445 0.512300 -1.675000 9.868200 -90.960582 8.232030 27.988663 22.059449 -30.880167 -5.806041 0.676645 0.400321 6.790389 -7.125000 0.000000 0.000000 97.298735 -15.899828 13.099157 -34.113657 41.629431 -11.603763 1.378252 -2.465311 7.599651 7.125000 0.000000 0.000000 
-0.722172 18.154503 4.810514 -1.555968 -0.706594 4.334446 -10.283300 -7.157981 7.989940 -1.899558 -3.743537 -7.762209 -4.536919 17.965933 1.301943 0.292500 -3.478000 -9.612600 16.037997 2.033046 6.787747 1.301613 3.605556 -6.662463 2.488796 -12.129253 -7.506463 -0.059200 -1.569700 4.318000 -2.054440 1.972734 8.119614 -1.859492 1.468374 -8.059326 4.254205 -4.817003 28.651603 0.500400 -1.676200 9.870500 -90.959176 8.228688 28.015431 22.063011 -30.871074 -5.784381 0.661715 0.398642 6.807957 -7.125000 0.000000 0.000000 97.333786 -15.907882 13.021567 -34.111114 41.625901 -11.597574 1.378186 -2.466834 7.640975 7.125000 0.000000 0.000000 
-0.722172 18.154603 4.810214 -1.526028 -0.697282 4.364497 -10.309425 -7.148757 7.935443 -1.899675 -3.730377 -7.728319 -4.520528 17.914185 1.345945 0.298800 -3.514500 -9.714700 16.006313 2.024337 6.773235 1.300266 3.619567 -6.702942 2.494071 -12.150660 -7.495963 -0.058300 -1.557800 4.285200 -2.080600 1.978812 8.067597 -1.845050 1.473287 -8.055735 4.401191 -4.869639 28.706014 0.540600 -1.684900 9.890800 -90.943310 8.243173 28.076154 22.090292 -30.894389 -5.786959 0.654705 0.399955 6.776388 -7.125000 0.000000 0.000000 97.347933 -15.921776 12.977834 -34.122813 41.633981 -11.604727 1.377330 -2.466795 7.667433 7.125000 0.000000 0.000000 
-0.722272 18.155102 4.810414 -1.496383 -0.697380 4.390194 -10.332328 -7.158008 7.900198 -1.900520 -3.716535 -7.695438 -4.513985 17.893775 1.365116 0.304700 -3.548800 -9.810500 15.983794 2.019931 6.774934 1.299311 3.632393 -6.740403 2.502490 -12.184107 -7.477337 -0.053900 -1.497900 4.120000 -2.166793 1.984511 7.988078 -1.819116 1.477646 -8.048453 4.531771 -4.921050 28.734742 0.570100 -1.692000 9.898700 -90.916055 8.271573 28.095060 22.100064 -30.902790 -5.792468 0.655447 0.401223 6.746683 -7.125000 0.000000 0.000000 97.367426 -15.959423 12.984961 -34.153390 41.658202 -11.622517 1.379599 -2.465316 7.642341 7.125000 0.000000 0.000000 
-0.722272 18.155402 4.811014 -1.487411 -0.694582 4.400869 -10.331127 -7.144634 7.871576 -1.900230 -3.705043 -7.664893 -4.502223 17.848371 1.350992 0.290100 -3.463800 -9.572800 15.985326 2.011577 6.784389 1.298652 3.643059 -6.769357 2.509917 -12.212842 -7.456868 -0.052900 -1.483700 4.080900 -2.251220 1.986527 7.943492 -1.801931 1.478441 -8.045531 4.409923 -4.887325 28.701091 0.531100 -1.686600 9.882100 -90.909438 8.271153 28.032982 22.084441 -30.884689 -5.786029 0.656279 0.399576 6.776216 -7.125000 0.000000 0.000000 97.387572 -15.966359 12.999430 -34.176774 41.675888 -11.629736 1.387320 -2.463726 7.620218 7.125000 0.000000 0.000000 
